<?xml version="1.0" standalone="no"?>
<!DOCTYPE svg PUBLIC "-//W3C//DTD SVG 20010904//EN"
 "http://www.w3.org/TR/2001/REC-SVG-20010904/DTD/svg10.dtd">
<svg version="1.0" xmlns="http://www.w3.org/2000/svg"
 width="160.000000pt" height="160.000000pt" viewBox="0 0 160.000000 160.000000"
 preserveAspectRatio="xMidYMid meet">
<metadata>
Created by potrace 1.11, written by Peter Selinger 2001-2013
</metadata>
<g transform="translate(0.000000,160.000000) scale(0.100000,-0.100000)"
fill="#000000" stroke="none">
<path d="M465 1586 c-55 -24 -97 -85 -109 -157 -22 -134 -68 -397 -71 -409 -2
-8 -6 -28 -9 -45 -9 -56 -36 -210 -41 -235 -3 -14 -10 -52 -15 -85 -6 -33 -21
-122 -34 -198 -27 -157 -23 -196 22 -253 45 -56 73 -65 367 -114 33 -5 71 -12
85 -15 14 -3 39 -8 55 -10 17 -3 55 -10 85 -15 30 -5 73 -12 95 -15 22 -4 47
-8 55 -10 124 -35 215 -16 272 56 25 31 33 59 63 225 19 104 37 205 40 224 3
19 12 71 20 115 8 44 16 92 19 108 3 15 10 55 16 90 17 97 19 106 35 202 8 50
17 101 20 115 4 14 9 61 11 105 5 76 4 82 -24 126 -28 44 -74 75 -125 85 -12
2 -112 20 -222 39 -110 19 -265 46 -344 60 -161 28 -222 30 -266 11z m555
-237 c115 -27 175 -63 233 -140 88 -117 75 -288 -33 -455 -90 -136 -204 -212
-337 -222 -70 -5 -113 13 -113 47 0 23 46 63 98 88 20 9 58 39 84 66 79 80
114 231 77 331 -30 80 -35 78 -80 -20 -22 -49 -55 -118 -71 -154 -88 -187
-111 -239 -144 -318 -44 -108 -95 -200 -126 -229 -67 -61 -199 -94 -238 -58
-11 10 -20 26 -20 36 0 50 71 213 299 683 56 114 101 212 101 217 0 11 -24 11
-71 0 -21 -5 -42 -5 -49 -1 -33 21 5 105 59 130 66 31 194 31 331 -1z"/>
</g>
</svg>
